<svg width="277" height="87" viewBox="0 0 277 87" fill="none" xmlns="http://www.w3.org/2000/svg">
<g filter="url(#filter0_d_1109_8510)">
<rect x="5" y="5" width="252" height="62" rx="31" fill="#F0F0F0"/>
</g>
<path d="M98.3983 44.216C97.4743 44.216 96.6583 44.06 95.9503 43.748C95.2423 43.424 94.6843 42.968 94.2763 42.38C93.8683 41.78 93.6583 41.054 93.6463 40.202H96.0763C96.1003 40.79 96.3103 41.288 96.7063 41.696C97.1143 42.092 97.6723 42.29 98.3803 42.29C98.9923 42.29 99.4783 42.146 99.8383 41.858C100.198 41.558 100.378 41.162 100.378 40.67C100.378 40.154 100.216 39.752 99.8923 39.464C99.5803 39.176 99.1603 38.942 98.6323 38.762C98.1043 38.582 97.5403 38.39 96.9403 38.186C95.9683 37.85 95.2243 37.418 94.7083 36.89C94.2043 36.362 93.9523 35.66 93.9523 34.784C93.9403 34.04 94.1143 33.404 94.4743 32.876C94.8463 32.336 95.3503 31.922 95.9863 31.634C96.6223 31.334 97.3543 31.184 98.1823 31.184C99.0223 31.184 99.7603 31.334 100.396 31.634C101.044 31.934 101.548 32.354 101.908 32.894C102.28 33.434 102.478 34.076 102.502 34.82H100.036C100.024 34.376 99.8503 33.986 99.5143 33.65C99.1903 33.302 98.7343 33.128 98.1463 33.128C97.6423 33.116 97.2163 33.242 96.8683 33.506C96.5323 33.758 96.3643 34.13 96.3643 34.622C96.3643 35.042 96.4963 35.378 96.7603 35.63C97.0243 35.87 97.3843 36.074 97.8403 36.242C98.2963 36.41 98.8183 36.59 99.4063 36.782C100.03 36.998 100.6 37.25 101.116 37.538C101.632 37.826 102.046 38.21 102.358 38.69C102.67 39.158 102.826 39.764 102.826 40.508C102.826 41.168 102.658 41.78 102.322 42.344C101.986 42.908 101.488 43.364 100.828 43.712C100.168 44.048 99.3583 44.216 98.3983 44.216ZM105.736 44V31.4H108.04V44H105.736ZM116.891 44.216C115.703 44.216 114.665 43.946 113.777 43.406C112.889 42.866 112.199 42.116 111.707 41.156C111.215 40.184 110.969 39.056 110.969 37.772C110.969 36.476 111.221 35.336 111.725 34.352C112.241 33.356 112.967 32.582 113.903 32.03C114.851 31.466 115.973 31.184 117.269 31.184C118.745 31.184 119.969 31.538 120.941 32.246C121.913 32.954 122.543 33.932 122.831 35.18H120.257C120.065 34.592 119.717 34.136 119.213 33.812C118.709 33.476 118.061 33.308 117.269 33.308C116.009 33.308 115.037 33.71 114.353 34.514C113.669 35.306 113.327 36.398 113.327 37.79C113.327 39.182 113.663 40.262 114.335 41.03C115.019 41.786 115.943 42.164 117.107 42.164C118.247 42.164 119.105 41.858 119.681 41.246C120.269 40.622 120.623 39.806 120.743 38.798H117.557V37.07H123.065V44H120.941L120.761 42.344C120.353 42.944 119.843 43.406 119.231 43.73C118.619 44.054 117.839 44.216 116.891 44.216ZM126.204 44V31.4H128.508L134.43 40.274V31.4H136.734V44H134.43L128.508 35.144V44H126.204ZM150.126 44.216C149.202 44.216 148.368 44.036 147.624 43.676C146.88 43.304 146.286 42.746 145.842 42.002C145.41 41.258 145.194 40.316 145.194 39.176V31.4H147.498V39.194C147.498 40.178 147.732 40.91 148.2 41.39C148.68 41.87 149.34 42.11 150.18 42.11C151.008 42.11 151.662 41.87 152.142 41.39C152.622 40.91 152.862 40.178 152.862 39.194V31.4H155.166V39.176C155.166 40.316 154.938 41.258 154.482 42.002C154.026 42.746 153.414 43.304 152.646 43.676C151.89 44.036 151.05 44.216 150.126 44.216ZM158.418 44V31.4H163.08C164.088 31.4 164.922 31.568 165.582 31.904C166.242 32.24 166.734 32.702 167.058 33.29C167.382 33.878 167.544 34.538 167.544 35.27C167.544 35.966 167.388 36.608 167.076 37.196C166.764 37.772 166.278 38.24 165.618 38.6C164.958 38.948 164.112 39.122 163.08 39.122H160.722V44H158.418ZM160.722 37.25H162.936C163.74 37.25 164.316 37.076 164.664 36.728C165.024 36.368 165.204 35.882 165.204 35.27C165.204 34.646 165.024 34.16 164.664 33.812C164.316 33.452 163.74 33.272 162.936 33.272H160.722V37.25Z" fill="black"/>
<defs>
<filter id="filter0_d_1109_8510" x="5" y="5" width="272" height="82" filterUnits="userSpaceOnUse" color-interpolation-filters="sRGB">
<feFlood flood-opacity="0" result="BackgroundImageFix"/>
<feColorMatrix in="SourceAlpha" type="matrix" values="0 0 0 0 0 0 0 0 0 0 0 0 0 0 0 0 0 0 127 0" result="hardAlpha"/>
<feOffset dx="10" dy="10"/>
<feGaussianBlur stdDeviation="5"/>
<feColorMatrix type="matrix" values="0 0 0 0 0 0 0 0 0 0 0 0 0 0 0 0 0 0 0.15 0"/>
<feBlend mode="normal" in2="BackgroundImageFix" result="effect1_dropShadow_1109_8510"/>
<feBlend mode="normal" in="SourceGraphic" in2="effect1_dropShadow_1109_8510" result="shape"/>
</filter>
</defs>
</svg>