<svg width="1440" height="583" viewBox="0 0 1440 583" fill="none" xmlns="http://www.w3.org/2000/svg">
<g filter="url(#filter0_d)">
<path d="M1440.65 155.862C1440.65 155.862 1455.67 138.877 1385.59 202.32C1348.75 235.669 1346.54 244.226 1271.96 282.749C1222.73 308.172 1189.69 315.368 1134.3 317.218C1070.34 319.355 1033.95 305.387 974.115 282.749C914.122 260.052 886.921 233.622 830.951 202.32C777.053 172.177 749.163 150.633 692.793 125.389C625.395 95.2056 586.96 66.8225 513.088 66.441C459.826 66.1659 430.97 80.7016 379.936 95.9148C341.391 107.405 299.902 113.041 247.784 107.405C192.183 101.391 156.788 85.217 104.12 66.441C58.3597 50.1274 -1 0 -1 0V425.122C-1 425.122 57.5428 465.97 121.14 480.074C224.758 503.053 299.599 430.775 416.978 425.122C601.298 416.247 698.598 496.364 883.011 503.053C1024.93 508.201 1107.74 447.395 1245.93 480.074C1326.38 499.099 1440.65 563 1440.65 563V155.862Z" fill="#0A101A"/>
</g>
<defs>
<filter id="filter0_d" x="-1" y="0" width="1463" height="583" filterUnits="userSpaceOnUse" color-interpolation-filters="sRGB">
<feFlood flood-opacity="0" result="BackgroundImageFix"/>
<feColorMatrix in="SourceAlpha" type="matrix" values="0 0 0 0 0 0 0 0 0 0 0 0 0 0 0 0 0 0 127 0" result="hardAlpha"/>
<feOffset dx="10" dy="10"/>
<feGaussianBlur stdDeviation="5"/>
<feColorMatrix type="matrix" values="0 0 0 0 0 0 0 0 0 0 0 0 0 0 0 0 0 0 0.15 0"/>
<feBlend mode="normal" in2="BackgroundImageFix" result="effect1_dropShadow"/>
<feBlend mode="normal" in="SourceGraphic" in2="effect1_dropShadow" result="shape"/>
</filter>
</defs>
</svg>
